<?xml version="1.0" encoding="utf-8" standalone="no"?>
<!DOCTYPE svg PUBLIC "-//W3C//DTD SVG 1.1//EN"
  "http://www.w3.org/Graphics/SVG/1.1/DTD/svg11.dtd">
<!-- Created with matplotlib (http://matplotlib.org/) -->
<svg height="277pt" version="1.1" viewBox="0 0 286 277" width="286pt" xmlns="http://www.w3.org/2000/svg" xmlns:xlink="http://www.w3.org/1999/xlink">
 <defs>
  <style type="text/css">
*{stroke-linecap:butt;stroke-linejoin:round;stroke-miterlimit:100000;}
  </style>
 </defs>
 <g id="figure_1">
  <g id="patch_1">
   <path d="M 0 277.139288 
L 286.921707 277.139288 
L 286.921707 0 
L 0 0 
z
" style="fill:#ffffff;"/>
  </g>
  <g id="axes_1">
   <g id="patch_2">
    <path d="M 30.710938 256.261163 
L 279.721707 256.261163 
L 279.721707 7.250394 
L 30.710938 7.250394 
z
" style="fill:#ffffff;"/>
   </g>
   <g id="PathCollection_1">
    <path clip-path="url(#pf6afb7788c)" d="M 35.896304 26.55018 
L 37.918126 24.507444 
L 38.282624 24.13166 
L 40.336645 22.012702 
L 40.621219 21.713141 
L 42.755165 19.46439 
L 42.913044 19.294621 
L 45.159034 16.876102 
L 45.173684 16.860324 
L 47.360106 14.457582 
L 47.592204 14.202005 
L 49.517158 12.039062 
L 47.592204 12.039062 
L 45.173684 12.039062 
L 42.755165 12.039062 
L 40.336645 12.039062 
L 37.918126 12.039062 
L 35.499606 12.039062 
L 35.499606 14.457582 
L 35.499606 16.876102 
L 35.499606 19.294621 
L 35.499606 21.713141 
L 35.499606 24.13166 
L 35.499606 26.55018 
L 35.499606 26.950898 
z
" style="fill:#be254a;"/>
   </g>
   <g id="PathCollection_2">
    <path clip-path="url(#pf6afb7788c)" d="M 36.066179 74.92057 
L 37.918126 73.049467 
L 38.449101 72.50205 
L 40.336645 70.554833 
L 40.784367 70.083531 
L 42.755165 68.006705 
L 43.072929 67.665011 
L 45.173684 65.402582 
L 45.315722 65.246492 
L 47.51366 62.827972 
L 47.592204 62.741483 
L 49.66764 60.409453 
L 50.010723 60.022978 
L 51.778543 57.990933 
L 52.429243 57.240689 
L 53.847229 55.572414 
L 54.847762 54.39102 
L 55.874542 53.153894 
L 57.266282 51.470004 
L 57.861311 50.735375 
L 59.684801 48.473246 
L 59.808346 48.316855 
L 61.716441 45.898336 
L 62.103321 45.405926 
L 63.586376 43.479816 
L 64.52184 42.257434 
L 65.418913 41.061297 
L 66.94036 39.018736 
L 67.214801 38.642777 
L 68.974772 36.224258 
L 69.358879 35.694063 
L 70.699545 33.805738 
L 71.777399 32.27482 
L 72.389823 31.387219 
L 74.046298 28.968699 
L 74.195918 28.749843 
L 75.669643 26.55018 
L 76.614438 25.125671 
L 77.260523 24.13166 
L 78.819587 21.713141 
L 79.032957 21.38122 
L 80.34747 19.294621 
L 81.451477 17.52091 
L 81.844797 16.876102 
L 83.312178 14.457582 
L 83.869996 13.531004 
L 84.750212 12.039062 
L 83.869996 12.039062 
L 81.451477 12.039062 
L 79.032957 12.039062 
L 76.614438 12.039062 
L 74.195918 12.039062 
L 71.777399 12.039062 
L 69.358879 12.039062 
L 66.94036 12.039062 
L 64.52184 12.039062 
L 62.103321 12.039062 
L 59.684801 12.039062 
L 57.266282 12.039062 
L 54.847762 12.039062 
L 52.429243 12.039062 
L 50.010723 12.039062 
L 49.517158 12.039062 
L 47.592204 14.202005 
L 47.360106 14.457582 
L 45.173684 16.860324 
L 45.159034 16.876102 
L 42.913044 19.294621 
L 42.755165 19.46439 
L 40.621219 21.713141 
L 40.336645 22.012702 
L 38.282624 24.13166 
L 37.918126 24.507444 
L 35.896304 26.55018 
L 35.499606 26.950898 
L 35.499606 28.968699 
L 35.499606 31.387219 
L 35.499606 33.805738 
L 35.499606 36.224258 
L 35.499606 38.642777 
L 35.499606 41.061297 
L 35.499606 43.479816 
L 35.499606 45.898336 
L 35.499606 48.316855 
L 35.499606 50.735375 
L 35.499606 53.153894 
L 35.499606 55.572414 
L 35.499606 57.990933 
L 35.499606 60.409453 
L 35.499606 62.827972 
L 35.499606 65.246492 
L 35.499606 67.665011 
L 35.499606 70.083531 
L 35.499606 72.50205 
L 35.499606 74.92057 
L 35.499606 75.492885 
z
" style="fill:#f06744;"/>
   </g>
   <g id="PathCollection_3">
    <path clip-path="url(#pf6afb7788c)" d="M 36.811919 157.150233 
L 37.918126 156.032584 
L 39.179927 154.731714 
L 40.336645 153.538427 
L 41.500577 152.313194 
L 42.755165 150.99111 
L 43.774815 149.894675 
L 45.173684 148.388149 
L 46.00357 147.476155 
L 47.592204 145.726813 
L 48.187752 145.057636 
L 50.010723 143.004103 
L 50.328251 142.639116 
L 52.425942 140.220597 
L 52.429243 140.216791 
L 54.48168 137.802077 
L 54.847762 137.369821 
L 56.496305 135.383558 
L 57.266282 134.451949 
L 58.470639 132.965038 
L 59.684801 131.458811 
L 60.405488 130.546519 
L 62.103321 128.385566 
L 62.30164 128.127999 
L 64.159872 125.70948 
L 64.52184 125.236491 
L 65.980939 123.29096 
L 66.94036 122.002927 
L 67.765587 120.872441 
L 69.358879 118.673173 
L 69.514543 118.453921 
L 71.228521 116.035402 
L 71.777399 115.255809 
L 72.90822 113.616882 
L 74.195918 111.733318 
L 74.554327 111.198363 
L 76.167512 108.779843 
L 76.614438 108.105994 
L 77.748435 106.361324 
L 79.032957 104.363109 
L 79.297741 103.942804 
L 80.816061 101.524285 
L 81.451477 100.503418 
L 82.304016 99.105765 
L 83.762213 96.687246 
L 83.869996 96.50821 
L 85.191247 94.268726 
L 86.288516 92.382129 
L 86.591702 91.850206 
L 87.964148 89.431687 
L 88.707035 88.107951 
L 89.309146 87.013167 
L 90.627245 84.594648 
L 91.125555 83.673214 
L 91.918983 82.176128 
L 93.184888 79.757609 
L 93.544074 79.067383 
L 94.425474 77.339089 
L 95.64125 74.92057 
L 95.962594 74.277861 
L 96.832712 72.50205 
L 98.000345 70.083531 
L 98.381114 69.28956 
L 99.144626 67.665011 
L 100.266022 65.246492 
L 100.799633 64.084365 
L 101.364991 62.827972 
L 102.441981 60.409453 
L 103.218153 58.640443 
L 103.497433 57.990933 
L 104.531775 55.572414 
L 105.545432 53.153894 
L 105.636672 52.935801 
L 106.538817 50.735375 
L 107.512334 48.316855 
L 108.055192 46.952705 
L 108.466382 45.898336 
L 109.401349 43.479816 
L 110.317618 41.061297 
L 110.473711 40.647846 
L 111.215561 38.642777 
L 112.095547 36.224258 
L 112.892231 33.993467 
L 112.957933 33.805738 
L 113.803073 31.387219 
L 114.63131 28.968699 
L 115.31075 26.950898 
L 115.442983 26.55018 
L 116.238423 24.13166 
L 117.017955 21.713141 
L 117.72927 19.46439 
L 117.781896 19.294621 
L 118.530559 16.876102 
L 119.26425 14.457582 
L 119.983267 12.039062 
L 117.72927 12.039062 
L 115.31075 12.039062 
L 112.892231 12.039062 
L 110.473711 12.039062 
L 108.055192 12.039062 
L 105.636672 12.039062 
L 103.218153 12.039062 
L 100.799633 12.039062 
L 98.381114 12.039062 
L 95.962594 12.039062 
L 93.544074 12.039062 
L 91.125555 12.039062 
L 88.707035 12.039062 
L 86.288516 12.039062 
L 84.750212 12.039062 
L 83.869996 13.531004 
L 83.312178 14.457582 
L 81.844797 16.876102 
L 81.451477 17.52091 
L 80.34747 19.294621 
L 79.032957 21.38122 
L 78.819587 21.713141 
L 77.260523 24.13166 
L 76.614438 25.125671 
L 75.669643 26.55018 
L 74.195918 28.749843 
L 74.046298 28.968699 
L 72.389823 31.387219 
L 71.777399 32.27482 
L 70.699545 33.805738 
L 69.358879 35.694063 
L 68.974772 36.224258 
L 67.214801 38.642777 
L 66.94036 39.018736 
L 65.418913 41.061297 
L 64.52184 42.257434 
L 63.586376 43.479816 
L 62.103321 45.405926 
L 61.716441 45.898336 
L 59.808346 48.316855 
L 59.684801 48.473246 
L 57.861311 50.735375 
L 57.266282 51.470004 
L 55.874542 53.153894 
L 54.847762 54.39102 
L 53.847229 55.572414 
L 52.429243 57.240689 
L 51.778543 57.990933 
L 50.010723 60.022978 
L 49.66764 60.409453 
L 47.592204 62.741483 
L 47.51366 62.827972 
L 45.315722 65.246492 
L 45.173684 65.402582 
L 43.072929 67.665011 
L 42.755165 68.006705 
L 40.784367 70.083531 
L 40.336645 70.554833 
L 38.449101 72.50205 
L 37.918126 73.049467 
L 36.066179 74.92057 
L 35.499606 75.492885 
L 35.499606 77.339089 
L 35.499606 79.757609 
L 35.499606 82.176128 
L 35.499606 84.594648 
L 35.499606 87.013167 
L 35.499606 89.431687 
L 35.499606 91.850206 
L 35.499606 94.268726 
L 35.499606 96.687246 
L 35.499606 99.105765 
L 35.499606 101.524285 
L 35.499606 103.942804 
L 35.499606 106.361324 
L 35.499606 108.779843 
L 35.499606 111.198363 
L 35.499606 113.616882 
L 35.499606 116.035402 
L 35.499606 118.453921 
L 35.499606 120.872441 
L 35.499606 123.29096 
L 35.499606 125.70948 
L 35.499606 128.127999 
L 35.499606 130.546519 
L 35.499606 132.965038 
L 35.499606 135.383558 
L 35.499606 137.802077 
L 35.499606 140.220597 
L 35.499606 142.639116 
L 35.499606 145.057636 
L 35.499606 147.476155 
L 35.499606 149.894675 
L 35.499606 152.313194 
L 35.499606 154.731714 
L 35.499606 157.150233 
L 35.499606 158.475846 
z
" style="fill:#fdb567;"/>
   </g>
   <g id="PathCollection_4">
    <path clip-path="url(#pf6afb7788c)" d="M 37.918126 251.472494 
L 40.336645 251.472494 
L 42.755165 251.472494 
L 45.173684 251.472494 
L 47.592204 251.472494 
L 50.010723 251.472494 
L 52.429243 251.472494 
L 54.847762 251.472494 
L 57.266282 251.472494 
L 59.684801 251.472494 
L 62.103321 251.472494 
L 64.52184 251.472494 
L 66.94036 251.472494 
L 69.358879 251.472494 
L 71.777399 251.472494 
L 74.195918 251.472494 
L 76.614438 251.472494 
L 79.032957 251.472494 
L 81.451477 251.472494 
L 83.869996 251.472494 
L 86.288516 251.472494 
L 88.707035 251.472494 
L 91.125555 251.472494 
L 93.544074 251.472494 
L 95.962594 251.472494 
L 98.381114 251.472494 
L 100.799633 251.472494 
L 103.218153 251.472494 
L 105.636672 251.472494 
L 108.055192 251.472494 
L 110.473711 251.472494 
L 112.892231 251.472494 
L 115.31075 251.472494 
L 117.72927 251.472494 
L 120.147789 251.472494 
L 122.566309 251.472494 
L 124.984828 251.472494 
L 127.403348 251.472494 
L 129.821867 251.472494 
L 132.240387 251.472494 
L 134.658906 251.472494 
L 137.077426 251.472494 
L 139.495945 251.472494 
L 141.914465 251.472494 
L 144.332984 251.472494 
L 146.751504 251.472494 
L 149.170023 251.472494 
L 151.588543 251.472494 
L 154.007062 251.472494 
L 155.216322 251.472494 
L 155.216322 249.053975 
L 155.216322 246.635455 
L 155.216322 244.216936 
L 155.216322 241.798416 
L 155.216322 239.379897 
L 155.216322 236.961377 
L 155.216322 234.542858 
L 155.216322 232.124338 
L 155.216322 229.705819 
L 155.216322 227.287299 
L 155.216322 224.86878 
L 155.216322 222.45026 
L 155.216322 220.031741 
L 155.216322 217.613221 
L 155.216322 215.194702 
L 155.216322 212.776182 
L 155.216322 210.357663 
L 155.216322 207.939143 
L 155.216322 205.520624 
L 155.216322 203.102104 
L 155.216322 200.683585 
L 155.216322 198.265065 
L 155.216322 195.846546 
L 155.216322 193.428026 
L 155.216322 191.009507 
L 155.216322 188.590987 
L 155.216322 186.172468 
L 155.216322 183.753948 
L 155.216322 181.335429 
L 155.216322 178.916909 
L 155.216322 176.498389 
L 155.216322 174.07987 
L 155.216322 171.66135 
L 155.216322 169.242831 
L 155.216322 166.824311 
L 155.216322 164.405792 
L 155.216322 161.987272 
L 155.216322 159.568753 
L 155.216322 157.150233 
L 155.216322 154.731714 
L 155.216322 152.313194 
L 155.216322 149.894675 
L 155.216322 147.476155 
L 155.216322 145.057636 
L 155.216322 142.639116 
L 155.216322 140.220597 
L 155.216322 137.802077 
L 155.216322 135.383558 
L 155.216322 132.965038 
L 155.216322 130.546519 
L 155.216322 128.127999 
L 155.216322 125.70948 
L 155.216322 123.29096 
L 155.216322 120.872441 
L 155.216322 118.453921 
L 155.216322 116.035402 
L 155.216322 113.616882 
L 155.216322 111.198363 
L 155.216322 108.779843 
L 155.216322 106.361324 
L 155.216322 103.942804 
L 155.216322 101.524285 
L 155.216322 99.105765 
L 155.216322 96.687246 
L 155.216322 94.268726 
L 155.216322 91.850206 
L 155.216322 89.431687 
L 155.216322 87.013167 
L 155.216322 84.594648 
L 155.216322 82.176128 
L 155.216322 79.757609 
L 155.216322 77.339089 
L 155.216322 74.92057 
L 155.216322 72.50205 
L 155.216322 70.083531 
L 155.216322 67.665011 
L 155.216322 65.246492 
L 155.216322 62.827972 
L 155.216322 60.409453 
L 155.216322 57.990933 
L 155.216322 55.572414 
L 155.216322 53.153894 
L 155.216322 50.735375 
L 155.216322 48.316855 
L 155.216322 45.898336 
L 155.216322 43.479816 
L 155.216322 41.061297 
L 155.216322 38.642777 
L 155.216322 36.224258 
L 155.216322 33.805738 
L 155.216322 31.387219 
L 155.216322 28.968699 
L 155.216322 26.55018 
L 155.216322 24.13166 
L 155.216322 21.713141 
L 155.216322 19.294621 
L 155.216322 16.876102 
L 155.216322 14.457582 
L 155.216322 12.039062 
L 154.007062 12.039062 
L 151.588543 12.039062 
L 149.170023 12.039062 
L 146.751504 12.039062 
L 144.332984 12.039062 
L 141.914465 12.039062 
L 139.495945 12.039062 
L 137.077426 12.039062 
L 134.658906 12.039062 
L 132.240387 12.039062 
L 129.821867 12.039062 
L 127.403348 12.039062 
L 124.984828 12.039062 
L 122.566309 12.039062 
L 120.147789 12.039062 
L 119.983267 12.039062 
L 119.26425 14.457582 
L 118.530559 16.876102 
L 117.781896 19.294621 
L 117.72927 19.46439 
L 117.017955 21.713141 
L 116.238423 24.13166 
L 115.442983 26.55018 
L 115.31075 26.950898 
L 114.63131 28.968699 
L 113.803073 31.387219 
L 112.957933 33.805738 
L 112.892231 33.993467 
L 112.095547 36.224258 
L 111.215561 38.642777 
L 110.473711 40.647846 
L 110.317618 41.061297 
L 109.401349 43.479816 
L 108.466382 45.898336 
L 108.055192 46.952705 
L 107.512334 48.316855 
L 106.538817 50.735375 
L 105.636672 52.935801 
L 105.545432 53.153894 
L 104.531775 55.572414 
L 103.497433 57.990933 
L 103.218153 58.640443 
L 102.441981 60.409453 
L 101.364991 62.827972 
L 100.799633 64.084365 
L 100.266022 65.246492 
L 99.144626 67.665011 
L 98.381114 69.28956 
L 98.000345 70.083531 
L 96.832712 72.50205 
L 95.962594 74.277861 
L 95.64125 74.92057 
L 94.425474 77.339089 
L 93.544074 79.067383 
L 93.184888 79.757609 
L 91.918983 82.176128 
L 91.125555 83.673214 
L 90.627245 84.594648 
L 89.309146 87.013167 
L 88.707035 88.107951 
L 87.964148 89.431687 
L 86.591702 91.850206 
L 86.288516 92.382129 
L 85.191247 94.268726 
L 83.869996 96.50821 
L 83.762213 96.687246 
L 82.304016 99.105765 
L 81.451477 100.503418 
L 80.816061 101.524285 
L 79.297741 103.942804 
L 79.032957 104.363109 
L 77.748435 106.361324 
L 76.614438 108.105994 
L 76.167512 108.779843 
L 74.554327 111.198363 
L 74.195918 111.733318 
L 72.90822 113.616882 
L 71.777399 115.255809 
L 71.228521 116.035402 
L 69.514543 118.453921 
L 69.358879 118.673173 
L 67.765587 120.872441 
L 66.94036 122.002927 
L 65.980939 123.29096 
L 64.52184 125.236491 
L 64.159872 125.70948 
L 62.30164 128.127999 
L 62.103321 128.385566 
L 60.405488 130.546519 
L 59.684801 131.458811 
L 58.470639 132.965038 
L 57.266282 134.451949 
L 56.496305 135.383558 
L 54.847762 137.369821 
L 54.48168 137.802077 
L 52.429243 140.216791 
L 52.425942 140.220597 
L 50.328251 142.639116 
L 50.010723 143.004103 
L 48.187752 145.057636 
L 47.592204 145.726813 
L 46.00357 147.476155 
L 45.173684 148.388149 
L 43.774815 149.894675 
L 42.755165 150.99111 
L 41.500577 152.313194 
L 40.336645 153.538427 
L 39.179927 154.731714 
L 37.918126 156.032584 
L 36.811919 157.150233 
L 35.499606 158.475846 
L 35.499606 159.568753 
L 35.499606 161.987272 
L 35.499606 164.405792 
L 35.499606 166.824311 
L 35.499606 169.242831 
L 35.499606 171.66135 
L 35.499606 174.07987 
L 35.499606 176.498389 
L 35.499606 178.916909 
L 35.499606 181.335429 
L 35.499606 183.753948 
L 35.499606 186.172468 
L 35.499606 188.590987 
L 35.499606 191.009507 
L 35.499606 193.428026 
L 35.499606 195.846546 
L 35.499606 198.265065 
L 35.499606 200.683585 
L 35.499606 203.102104 
L 35.499606 205.520624 
L 35.499606 207.939143 
L 35.499606 210.357663 
L 35.499606 212.776182 
L 35.499606 215.194702 
L 35.499606 217.613221 
L 35.499606 220.031741 
L 35.499606 222.45026 
L 35.499606 224.86878 
L 35.499606 227.287299 
L 35.499606 229.705819 
L 35.499606 232.124338 
L 35.499606 234.542858 
L 35.499606 236.961377 
L 35.499606 239.379897 
L 35.499606 241.798416 
L 35.499606 244.216936 
L 35.499606 246.635455 
L 35.499606 249.053975 
L 35.499606 251.472494 
z
" style="fill:#feec9f;"/>
   </g>
   <g id="PathCollection_5">
    <path clip-path="url(#pf6afb7788c)" d="M 156.425582 251.472494 
L 158.844101 251.472494 
L 161.262621 251.472494 
L 163.68114 251.472494 
L 166.09966 251.472494 
L 168.518179 251.472494 
L 170.936699 251.472494 
L 173.355218 251.472494 
L 175.773738 251.472494 
L 178.192258 251.472494 
L 180.610777 251.472494 
L 183.029297 251.472494 
L 185.447816 251.472494 
L 187.866336 251.472494 
L 190.284855 251.472494 
L 192.703375 251.472494 
L 195.121894 251.472494 
L 197.540414 251.472494 
L 199.958933 251.472494 
L 202.377453 251.472494 
L 204.795972 251.472494 
L 207.214492 251.472494 
L 209.633011 251.472494 
L 212.051531 251.472494 
L 214.47005 251.472494 
L 216.88857 251.472494 
L 219.307089 251.472494 
L 221.725609 251.472494 
L 224.144128 251.472494 
L 226.562648 251.472494 
L 228.981167 251.472494 
L 231.399687 251.472494 
L 233.818206 251.472494 
L 236.236726 251.472494 
L 238.655245 251.472494 
L 241.073765 251.472494 
L 243.492284 251.472494 
L 245.910804 251.472494 
L 248.329323 251.472494 
L 250.747843 251.472494 
L 253.166362 251.472494 
L 255.584882 251.472494 
L 258.003401 251.472494 
L 260.421921 251.472494 
L 262.840441 251.472494 
L 265.25896 251.472494 
L 267.67748 251.472494 
L 270.095999 251.472494 
L 272.514519 251.472494 
L 274.933038 251.472494 
L 274.933038 249.053975 
L 274.933038 246.635455 
L 274.933038 244.216936 
L 274.933038 241.798416 
L 274.933038 239.379897 
L 274.933038 236.961377 
L 274.933038 234.542858 
L 274.933038 232.124338 
L 274.933038 229.705819 
L 274.933038 227.287299 
L 274.933038 224.86878 
L 274.933038 222.45026 
L 274.933038 220.031741 
L 274.933038 217.613221 
L 274.933038 215.194702 
L 274.933038 212.776182 
L 274.933038 210.357663 
L 274.933038 207.939143 
L 274.933038 205.520624 
L 274.933038 203.102104 
L 274.933038 200.683585 
L 274.933038 198.265065 
L 274.933038 195.846546 
L 274.933038 193.428026 
L 274.933038 191.009507 
L 274.933038 188.590987 
L 274.933038 186.172468 
L 274.933038 183.753948 
L 274.933038 181.335429 
L 274.933038 178.916909 
L 274.933038 176.498389 
L 274.933038 174.07987 
L 274.933038 171.66135 
L 274.933038 169.242831 
L 274.933038 166.824311 
L 274.933038 164.405792 
L 274.933038 161.987272 
L 274.933038 159.568753 
L 274.933038 158.475846 
L 273.620726 157.150233 
L 272.514519 156.032584 
L 271.252717 154.731714 
L 270.095999 153.538427 
L 268.932067 152.313194 
L 267.67748 150.99111 
L 266.657829 149.894675 
L 265.25896 148.388149 
L 264.429074 147.476155 
L 262.840441 145.726813 
L 262.244892 145.057636 
L 260.421921 143.004103 
L 260.104393 142.639116 
L 258.006702 140.220597 
L 258.003401 140.216791 
L 255.950964 137.802077 
L 255.584882 137.369821 
L 253.936339 135.383558 
L 253.166362 134.451949 
L 251.962005 132.965038 
L 250.747843 131.458811 
L 250.027157 130.546519 
L 248.329323 128.385566 
L 248.131004 128.127999 
L 246.272773 125.70948 
L 245.910804 125.236491 
L 244.451705 123.29096 
L 243.492284 122.002927 
L 242.667057 120.872441 
L 241.073765 118.673173 
L 240.918102 118.453921 
L 239.204124 116.035402 
L 238.655245 115.255809 
L 237.524424 113.616882 
L 236.236726 111.733318 
L 235.878318 111.198363 
L 234.265132 108.779843 
L 233.818206 108.105994 
L 232.684209 106.361324 
L 231.399687 104.363109 
L 231.134903 103.942804 
L 229.616583 101.524285 
L 228.981167 100.503418 
L 228.128628 99.105765 
L 226.670431 96.687246 
L 226.562648 96.50821 
L 225.241397 94.268726 
L 224.144128 92.382129 
L 223.840942 91.850206 
L 222.468496 89.431687 
L 221.725609 88.107951 
L 221.123498 87.013167 
L 219.805399 84.594648 
L 219.307089 83.673214 
L 218.513661 82.176128 
L 217.247757 79.757609 
L 216.88857 79.067383 
L 216.00717 77.339089 
L 214.791394 74.92057 
L 214.47005 74.277861 
L 213.599932 72.50205 
L 212.4323 70.083531 
L 212.051531 69.28956 
L 211.288019 67.665011 
L 210.166622 65.246492 
L 209.633011 64.084365 
L 209.067653 62.827972 
L 207.990663 60.409453 
L 207.214492 58.640443 
L 206.935212 57.990933 
L 205.900869 55.572414 
L 204.887212 53.153894 
L 204.795972 52.935801 
L 203.893828 50.735375 
L 202.92031 48.316855 
L 202.377453 46.952705 
L 201.966263 45.898336 
L 201.031295 43.479816 
L 200.115027 41.061297 
L 199.958933 40.647846 
L 199.217083 38.642777 
L 198.337097 36.224258 
L 197.540414 33.993467 
L 197.474711 33.805738 
L 196.629571 31.387219 
L 195.801334 28.968699 
L 195.121894 26.950898 
L 194.989661 26.55018 
L 194.194221 24.13166 
L 193.41469 21.713141 
L 192.703375 19.46439 
L 192.650748 19.294621 
L 191.902085 16.876102 
L 191.168394 14.457582 
L 190.449377 12.039062 
L 190.284855 12.039062 
L 187.866336 12.039062 
L 185.447816 12.039062 
L 183.029297 12.039062 
L 180.610777 12.039062 
L 178.192258 12.039062 
L 175.773738 12.039062 
L 173.355218 12.039062 
L 170.936699 12.039062 
L 168.518179 12.039062 
L 166.09966 12.039062 
L 163.68114 12.039062 
L 161.262621 12.039062 
L 158.844101 12.039062 
L 156.425582 12.039062 
L 155.216322 12.039062 
L 155.216322 14.457582 
L 155.216322 16.876102 
L 155.216322 19.294621 
L 155.216322 21.713141 
L 155.216322 24.13166 
L 155.216322 26.55018 
L 155.216322 28.968699 
L 155.216322 31.387219 
L 155.216322 33.805738 
L 155.216322 36.224258 
L 155.216322 38.642777 
L 155.216322 41.061297 
L 155.216322 43.479816 
L 155.216322 45.898336 
L 155.216322 48.316855 
L 155.216322 50.735375 
L 155.216322 53.153894 
L 155.216322 55.572414 
L 155.216322 57.990933 
L 155.216322 60.409453 
L 155.216322 62.827972 
L 155.216322 65.246492 
L 155.216322 67.665011 
L 155.216322 70.083531 
L 155.216322 72.50205 
L 155.216322 74.92057 
L 155.216322 77.339089 
L 155.216322 79.757609 
L 155.216322 82.176128 
L 155.216322 84.594648 
L 155.216322 87.013167 
L 155.216322 89.431687 
L 155.216322 91.850206 
L 155.216322 94.268726 
L 155.216322 96.687246 
L 155.216322 99.105765 
L 155.216322 101.524285 
L 155.216322 103.942804 
L 155.216322 106.361324 
L 155.216322 108.779843 
L 155.216322 111.198363 
L 155.216322 113.616882 
L 155.216322 116.035402 
L 155.216322 118.453921 
L 155.216322 120.872441 
L 155.216322 123.29096 
L 155.216322 125.70948 
L 155.216322 128.127999 
L 155.216322 130.546519 
L 155.216322 132.965038 
L 155.216322 135.383558 
L 155.216322 137.802077 
L 155.216322 140.220597 
L 155.216322 142.639116 
L 155.216322 145.057636 
L 155.216322 147.476155 
L 155.216322 149.894675 
L 155.216322 152.313194 
L 155.216322 154.731714 
L 155.216322 157.150233 
L 155.216322 159.568753 
L 155.216322 161.987272 
L 155.216322 164.405792 
L 155.216322 166.824311 
L 155.216322 169.242831 
L 155.216322 171.66135 
L 155.216322 174.07987 
L 155.216322 176.498389 
L 155.216322 178.916909 
L 155.216322 181.335429 
L 155.216322 183.753948 
L 155.216322 186.172468 
L 155.216322 188.590987 
L 155.216322 191.009507 
L 155.216322 193.428026 
L 155.216322 195.846546 
L 155.216322 198.265065 
L 155.216322 200.683585 
L 155.216322 203.102104 
L 155.216322 205.520624 
L 155.216322 207.939143 
L 155.216322 210.357663 
L 155.216322 212.776182 
L 155.216322 215.194702 
L 155.216322 217.613221 
L 155.216322 220.031741 
L 155.216322 222.45026 
L 155.216322 224.86878 
L 155.216322 227.287299 
L 155.216322 229.705819 
L 155.216322 232.124338 
L 155.216322 234.542858 
L 155.216322 236.961377 
L 155.216322 239.379897 
L 155.216322 241.798416 
L 155.216322 244.216936 
L 155.216322 246.635455 
L 155.216322 249.053975 
L 155.216322 251.472494 
z
" style="fill:#eff9a6;"/>
   </g>
   <g id="PathCollection_6">
    <path clip-path="url(#pf6afb7788c)" d="M 274.933038 158.475846 
L 274.933038 157.150233 
L 274.933038 154.731714 
L 274.933038 152.313194 
L 274.933038 149.894675 
L 274.933038 147.476155 
L 274.933038 145.057636 
L 274.933038 142.639116 
L 274.933038 140.220597 
L 274.933038 137.802077 
L 274.933038 135.383558 
L 274.933038 132.965038 
L 274.933038 130.546519 
L 274.933038 128.127999 
L 274.933038 125.70948 
L 274.933038 123.29096 
L 274.933038 120.872441 
L 274.933038 118.453921 
L 274.933038 116.035402 
L 274.933038 113.616882 
L 274.933038 111.198363 
L 274.933038 108.779843 
L 274.933038 106.361324 
L 274.933038 103.942804 
L 274.933038 101.524285 
L 274.933038 99.105765 
L 274.933038 96.687246 
L 274.933038 94.268726 
L 274.933038 91.850206 
L 274.933038 89.431687 
L 274.933038 87.013167 
L 274.933038 84.594648 
L 274.933038 82.176128 
L 274.933038 79.757609 
L 274.933038 77.339089 
L 274.933038 75.492885 
L 274.366465 74.92057 
L 272.514519 73.049467 
L 271.983543 72.50205 
L 270.095999 70.554833 
L 269.648277 70.083531 
L 267.67748 68.006705 
L 267.359715 67.665011 
L 265.25896 65.402582 
L 265.116923 65.246492 
L 262.918985 62.827972 
L 262.840441 62.741483 
L 260.765004 60.409453 
L 260.421921 60.022978 
L 258.654101 57.990933 
L 258.003401 57.240689 
L 256.585415 55.572414 
L 255.584882 54.39102 
L 254.558102 53.153894 
L 253.166362 51.470004 
L 252.571333 50.735375 
L 250.747843 48.473246 
L 250.624298 48.316855 
L 248.716203 45.898336 
L 248.329323 45.405926 
L 246.846268 43.479816 
L 245.910804 42.257434 
L 245.013731 41.061297 
L 243.492284 39.018736 
L 243.217844 38.642777 
L 241.457872 36.224258 
L 241.073765 35.694063 
L 239.733099 33.805738 
L 238.655245 32.27482 
L 238.042821 31.387219 
L 236.386347 28.968699 
L 236.236726 28.749843 
L 234.763001 26.55018 
L 233.818206 25.125671 
L 233.172121 24.13166 
L 231.613057 21.713141 
L 231.399687 21.38122 
L 230.085174 19.294621 
L 228.981167 17.52091 
L 228.587847 16.876102 
L 227.120466 14.457582 
L 226.562648 13.531004 
L 225.682432 12.039062 
L 224.144128 12.039062 
L 221.725609 12.039062 
L 219.307089 12.039062 
L 216.88857 12.039062 
L 214.47005 12.039062 
L 212.051531 12.039062 
L 209.633011 12.039062 
L 207.214492 12.039062 
L 204.795972 12.039062 
L 202.377453 12.039062 
L 199.958933 12.039062 
L 197.540414 12.039062 
L 195.121894 12.039062 
L 192.703375 12.039062 
L 190.449377 12.039062 
L 191.168394 14.457582 
L 191.902085 16.876102 
L 192.650748 19.294621 
L 192.703375 19.46439 
L 193.41469 21.713141 
L 194.194221 24.13166 
L 194.989661 26.55018 
L 195.121894 26.950898 
L 195.801334 28.968699 
L 196.629571 31.387219 
L 197.474711 33.805738 
L 197.540414 33.993467 
L 198.337097 36.224258 
L 199.217083 38.642777 
L 199.958933 40.647846 
L 200.115027 41.061297 
L 201.031295 43.479816 
L 201.966263 45.898336 
L 202.377453 46.952705 
L 202.92031 48.316855 
L 203.893828 50.735375 
L 204.795972 52.935801 
L 204.887212 53.153894 
L 205.900869 55.572414 
L 206.935212 57.990933 
L 207.214492 58.640443 
L 207.990663 60.409453 
L 209.067653 62.827972 
L 209.633011 64.084365 
L 210.166622 65.246492 
L 211.288019 67.665011 
L 212.051531 69.28956 
L 212.4323 70.083531 
L 213.599932 72.50205 
L 214.47005 74.277861 
L 214.791394 74.92057 
L 216.00717 77.339089 
L 216.88857 79.067383 
L 217.247757 79.757609 
L 218.513661 82.176128 
L 219.307089 83.673214 
L 219.805399 84.594648 
L 221.123498 87.013167 
L 221.725609 88.107951 
L 222.468496 89.431687 
L 223.840942 91.850206 
L 224.144128 92.382129 
L 225.241397 94.268726 
L 226.562648 96.50821 
L 226.670431 96.687246 
L 228.128628 99.105765 
L 228.981167 100.503418 
L 229.616583 101.524285 
L 231.134903 103.942804 
L 231.399687 104.363109 
L 232.684209 106.361324 
L 233.818206 108.105994 
L 234.265132 108.779843 
L 235.878318 111.198363 
L 236.236726 111.733318 
L 237.524424 113.616882 
L 238.655245 115.255809 
L 239.204124 116.035402 
L 240.918102 118.453921 
L 241.073765 118.673173 
L 242.667057 120.872441 
L 243.492284 122.002927 
L 244.451705 123.29096 
L 245.910804 125.236491 
L 246.272773 125.70948 
L 248.131004 128.127999 
L 248.329323 128.385566 
L 250.027157 130.546519 
L 250.747843 131.458811 
L 251.962005 132.965038 
L 253.166362 134.451949 
L 253.936339 135.383558 
L 255.584882 137.369821 
L 255.950964 137.802077 
L 258.003401 140.216791 
L 258.006702 140.220597 
L 260.104393 142.639116 
L 260.421921 143.004103 
L 262.244892 145.057636 
L 262.840441 145.726813 
L 264.429074 147.476155 
L 265.25896 148.388149 
L 266.657829 149.894675 
L 267.67748 150.99111 
L 268.932067 152.313194 
L 270.095999 153.538427 
L 271.252717 154.731714 
L 272.514519 156.032584 
L 273.620726 157.150233 
z
" style="fill:#b1dfa3;"/>
   </g>
   <g id="PathCollection_7">
    <path clip-path="url(#pf6afb7788c)" d="M 274.933038 75.492885 
L 274.933038 74.92057 
L 274.933038 72.50205 
L 274.933038 70.083531 
L 274.933038 67.665011 
L 274.933038 65.246492 
L 274.933038 62.827972 
L 274.933038 60.409453 
L 274.933038 57.990933 
L 274.933038 55.572414 
L 274.933038 53.153894 
L 274.933038 50.735375 
L 274.933038 48.316855 
L 274.933038 45.898336 
L 274.933038 43.479816 
L 274.933038 41.061297 
L 274.933038 38.642777 
L 274.933038 36.224258 
L 274.933038 33.805738 
L 274.933038 31.387219 
L 274.933038 28.968699 
L 274.933038 26.950898 
L 274.53634 26.55018 
L 272.514519 24.507444 
L 272.15002 24.13166 
L 270.095999 22.012702 
L 269.811425 21.713141 
L 267.67748 19.46439 
L 267.5196 19.294621 
L 265.27361 16.876102 
L 265.25896 16.860324 
L 263.072538 14.457582 
L 262.840441 14.202005 
L 260.915487 12.039062 
L 260.421921 12.039062 
L 258.003401 12.039062 
L 255.584882 12.039062 
L 253.166362 12.039062 
L 250.747843 12.039062 
L 248.329323 12.039062 
L 245.910804 12.039062 
L 243.492284 12.039062 
L 241.073765 12.039062 
L 238.655245 12.039062 
L 236.236726 12.039062 
L 233.818206 12.039062 
L 231.399687 12.039062 
L 228.981167 12.039062 
L 226.562648 12.039062 
L 225.682432 12.039062 
L 226.562648 13.531004 
L 227.120466 14.457582 
L 228.587847 16.876102 
L 228.981167 17.52091 
L 230.085174 19.294621 
L 231.399687 21.38122 
L 231.613057 21.713141 
L 233.172121 24.13166 
L 233.818206 25.125671 
L 234.763001 26.55018 
L 236.236726 28.749843 
L 236.386347 28.968699 
L 238.042821 31.387219 
L 238.655245 32.27482 
L 239.733099 33.805738 
L 241.073765 35.694063 
L 241.457872 36.224258 
L 243.217844 38.642777 
L 243.492284 39.018736 
L 245.013731 41.061297 
L 245.910804 42.257434 
L 246.846268 43.479816 
L 248.329323 45.405926 
L 248.716203 45.898336 
L 250.624298 48.316855 
L 250.747843 48.473246 
L 252.571333 50.735375 
L 253.166362 51.470004 
L 254.558102 53.153894 
L 255.584882 54.39102 
L 256.585415 55.572414 
L 258.003401 57.240689 
L 258.654101 57.990933 
L 260.421921 60.022978 
L 260.765004 60.409453 
L 262.840441 62.741483 
L 262.918985 62.827972 
L 265.116923 65.246492 
L 265.25896 65.402582 
L 267.359715 67.665011 
L 267.67748 68.006705 
L 269.648277 70.083531 
L 270.095999 70.554833 
L 271.983543 72.50205 
L 272.514519 73.049467 
L 274.366465 74.92057 
z
" style="fill:#5eb9a9;"/>
   </g>
   <g id="PathCollection_8">
    <path clip-path="url(#pf6afb7788c)" d="M 274.933038 26.950898 
L 274.933038 26.55018 
L 274.933038 24.13166 
L 274.933038 21.713141 
L 274.933038 19.294621 
L 274.933038 16.876102 
L 274.933038 14.457582 
L 274.933038 12.039062 
L 272.514519 12.039062 
L 270.095999 12.039062 
L 267.67748 12.039062 
L 265.25896 12.039062 
L 262.840441 12.039062 
L 260.915487 12.039062 
L 262.840441 14.202005 
L 263.072538 14.457582 
L 265.25896 16.860324 
L 265.27361 16.876102 
L 267.5196 19.294621 
L 267.67748 19.46439 
L 269.811425 21.713141 
L 270.095999 22.012702 
L 272.15002 24.13166 
L 272.514519 24.507444 
L 274.53634 26.55018 
z
" style="fill:#4471b2;"/>
   </g>
   <g id="LineCollection_1">
    <path clip-path="url(#pf6afb7788c)" d="M 49.517158 12.039062 
L 47.592204 14.202005 
L 47.360106 14.457582 
L 45.173684 16.860324 
L 45.159034 16.876102 
L 42.913044 19.294621 
L 42.755165 19.46439 
L 40.621219 21.713141 
L 40.336645 22.012702 
L 38.282624 24.13166 
L 37.918126 24.507444 
L 35.896304 26.55018 
L 35.499606 26.950898 
" style="fill:none;stroke:#9e0142;"/>
   </g>
   <g id="LineCollection_2">
    <path clip-path="url(#pf6afb7788c)" d="M 84.750212 12.039062 
L 83.869996 13.531004 
L 83.312178 14.457582 
L 81.844797 16.876102 
L 81.451477 17.52091 
L 80.34747 19.294621 
L 79.032957 21.38122 
L 78.819587 21.713141 
L 77.260523 24.13166 
L 76.614438 25.125671 
L 75.669643 26.55018 
L 74.195918 28.749843 
L 74.046298 28.968699 
L 72.389823 31.387219 
L 71.777399 32.27482 
L 70.699545 33.805738 
L 69.358879 35.694063 
L 68.974772 36.224258 
L 67.214801 38.642777 
L 66.94036 39.018736 
L 65.418913 41.061297 
L 64.52184 42.257434 
L 63.586376 43.479816 
L 62.103321 45.405926 
L 61.716441 45.898336 
L 59.808346 48.316855 
L 59.684801 48.473246 
L 57.861311 50.735375 
L 57.266282 51.470004 
L 55.874542 53.153894 
L 54.847762 54.39102 
L 53.847229 55.572414 
L 52.429243 57.240689 
L 51.778543 57.990933 
L 50.010723 60.022978 
L 49.66764 60.409453 
L 47.592204 62.741483 
L 47.51366 62.827972 
L 45.315722 65.246492 
L 45.173684 65.402582 
L 43.072929 67.665011 
L 42.755165 68.006705 
L 40.784367 70.083531 
L 40.336645 70.554833 
L 38.449101 72.50205 
L 37.918126 73.049467 
L 36.066179 74.92057 
L 35.499606 75.492885 
" style="fill:none;stroke:#e95c47;"/>
   </g>
   <g id="LineCollection_3">
    <path clip-path="url(#pf6afb7788c)" d="M 119.983267 12.039062 
L 119.26425 14.457582 
L 118.530559 16.876102 
L 117.781896 19.294621 
L 117.72927 19.46439 
L 117.017955 21.713141 
L 116.238423 24.13166 
L 115.442983 26.55018 
L 115.31075 26.950898 
L 114.63131 28.968699 
L 113.803073 31.387219 
L 112.957933 33.805738 
L 112.892231 33.993467 
L 112.095547 36.224258 
L 111.215561 38.642777 
L 110.473711 40.647846 
L 110.317618 41.061297 
L 109.401349 43.479816 
L 108.466382 45.898336 
L 108.055192 46.952705 
L 107.512334 48.316855 
L 106.538817 50.735375 
L 105.636672 52.935801 
L 105.545432 53.153894 
L 104.531775 55.572414 
L 103.497433 57.990933 
L 103.218153 58.640443 
L 102.441981 60.409453 
L 101.364991 62.827972 
L 100.799633 64.084365 
L 100.266022 65.246492 
L 99.144626 67.665011 
L 98.381114 69.28956 
L 98.000345 70.083531 
L 96.832712 72.50205 
L 95.962594 74.277861 
L 95.64125 74.92057 
L 94.425474 77.339089 
L 93.544074 79.067383 
L 93.184888 79.757609 
L 91.918983 82.176128 
L 91.125555 83.673214 
L 90.627245 84.594648 
L 89.309146 87.013167 
L 88.707035 88.107951 
L 87.964148 89.431687 
L 86.591702 91.850206 
L 86.288516 92.382129 
L 85.191247 94.268726 
L 83.869996 96.50821 
L 83.762213 96.687246 
L 82.304016 99.105765 
L 81.451477 100.503418 
L 80.816061 101.524285 
L 79.297741 103.942804 
L 79.032957 104.363109 
L 77.748435 106.361324 
L 76.614438 108.105994 
L 76.167512 108.779843 
L 74.554327 111.198363 
L 74.195918 111.733318 
L 72.90822 113.616882 
L 71.777399 115.255809 
L 71.228521 116.035402 
L 69.514543 118.453921 
L 69.358879 118.673173 
L 67.765587 120.872441 
L 66.94036 122.002927 
L 65.980939 123.29096 
L 64.52184 125.236491 
L 64.159872 125.70948 
L 62.30164 128.127999 
L 62.103321 128.385566 
L 60.405488 130.546519 
L 59.684801 131.458811 
L 58.470639 132.965038 
L 57.266282 134.451949 
L 56.496305 135.383558 
L 54.847762 137.369821 
L 54.48168 137.802077 
L 52.429243 140.216791 
L 52.425942 140.220597 
L 50.328251 142.639116 
L 50.010723 143.004103 
L 48.187752 145.057636 
L 47.592204 145.726813 
L 46.00357 147.476155 
L 45.173684 148.388149 
L 43.774815 149.894675 
L 42.755165 150.99111 
L 41.500577 152.313194 
L 40.336645 153.538427 
L 39.179927 154.731714 
L 37.918126 156.032584 
L 36.811919 157.150233 
L 35.499606 158.475846 
" style="fill:none;stroke:#fdbf6f;"/>
   </g>
   <g id="LineCollection_4">
    <path clip-path="url(#pf6afb7788c)" d="M 155.216322 12.039062 
L 155.216322 14.457582 
L 155.216322 16.876102 
L 155.216322 19.294621 
L 155.216322 21.713141 
L 155.216322 24.13166 
L 155.216322 26.55018 
L 155.216322 28.968699 
L 155.216322 31.387219 
L 155.216322 33.805738 
L 155.216322 36.224258 
L 155.216322 38.642777 
L 155.216322 41.061297 
L 155.216322 43.479816 
L 155.216322 45.898336 
L 155.216322 48.316855 
L 155.216322 50.735375 
L 155.216322 53.153894 
L 155.216322 55.572414 
L 155.216322 57.990933 
L 155.216322 60.409453 
L 155.216322 62.827972 
L 155.216322 65.246492 
L 155.216322 67.665011 
L 155.216322 70.083531 
L 155.216322 72.50205 
L 155.216322 74.92057 
L 155.216322 77.339089 
L 155.216322 79.757609 
L 155.216322 82.176128 
L 155.216322 84.594648 
L 155.216322 87.013167 
L 155.216322 89.431687 
L 155.216322 91.850206 
L 155.216322 94.268726 
L 155.216322 96.687246 
L 155.216322 99.105765 
L 155.216322 101.524285 
L 155.216322 103.942804 
L 155.216322 106.361324 
L 155.216322 108.779843 
L 155.216322 111.198363 
L 155.216322 113.616882 
L 155.216322 116.035402 
L 155.216322 118.453921 
L 155.216322 120.872441 
L 155.216322 123.29096 
L 155.216322 125.70948 
L 155.216322 128.127999 
L 155.216322 130.546519 
L 155.216322 132.965038 
L 155.216322 135.383558 
L 155.216322 137.802077 
L 155.216322 140.220597 
L 155.216322 142.639116 
L 155.216322 145.057636 
L 155.216322 147.476155 
L 155.216322 149.894675 
L 155.216322 152.313194 
L 155.216322 154.731714 
L 155.216322 157.150233 
L 155.216322 159.568753 
L 155.216322 161.987272 
L 155.216322 164.405792 
L 155.216322 166.824311 
L 155.216322 169.242831 
L 155.216322 171.66135 
L 155.216322 174.07987 
L 155.216322 176.498389 
L 155.216322 178.916909 
L 155.216322 181.335429 
L 155.216322 183.753948 
L 155.216322 186.172468 
L 155.216322 188.590987 
L 155.216322 191.009507 
L 155.216322 193.428026 
L 155.216322 195.846546 
L 155.216322 198.265065 
L 155.216322 200.683585 
L 155.216322 203.102104 
L 155.216322 205.520624 
L 155.216322 207.939143 
L 155.216322 210.357663 
L 155.216322 212.776182 
L 155.216322 215.194702 
L 155.216322 217.613221 
L 155.216322 220.031741 
L 155.216322 222.45026 
L 155.216322 224.86878 
L 155.216322 227.287299 
L 155.216322 229.705819 
L 155.216322 232.124338 
L 155.216322 234.542858 
L 155.216322 236.961377 
L 155.216322 239.379897 
L 155.216322 241.798416 
L 155.216322 244.216936 
L 155.216322 246.635455 
L 155.216322 249.053975 
L 155.216322 251.472494 
" style="fill:none;stroke:#ffffbe;"/>
   </g>
   <g id="LineCollection_5">
    <path clip-path="url(#pf6afb7788c)" d="M 190.449377 12.039062 
L 191.168394 14.457582 
L 191.902085 16.876102 
L 192.650748 19.294621 
L 192.703375 19.46439 
L 193.41469 21.713141 
L 194.194221 24.13166 
L 194.989661 26.55018 
L 195.121894 26.950898 
L 195.801334 28.968699 
L 196.629571 31.387219 
L 197.474711 33.805738 
L 197.540414 33.993467 
L 198.337097 36.224258 
L 199.217083 38.642777 
L 199.958933 40.647846 
L 200.115027 41.061297 
L 201.031295 43.479816 
L 201.966263 45.898336 
L 202.377453 46.952705 
L 202.92031 48.316855 
L 203.893828 50.735375 
L 204.795972 52.935801 
L 204.887212 53.153894 
L 205.900869 55.572414 
L 206.935212 57.990933 
L 207.214492 58.640443 
L 207.990663 60.409453 
L 209.067653 62.827972 
L 209.633011 64.084365 
L 210.166622 65.246492 
L 211.288019 67.665011 
L 212.051531 69.28956 
L 212.4323 70.083531 
L 213.599932 72.50205 
L 214.47005 74.277861 
L 214.791394 74.92057 
L 216.00717 77.339089 
L 216.88857 79.067383 
L 217.247757 79.757609 
L 218.513661 82.176128 
L 219.307089 83.673214 
L 219.805399 84.594648 
L 221.123498 87.013167 
L 221.725609 88.107951 
L 222.468496 89.431687 
L 223.840942 91.850206 
L 224.144128 92.382129 
L 225.241397 94.268726 
L 226.562648 96.50821 
L 226.670431 96.687246 
L 228.128628 99.105765 
L 228.981167 100.503418 
L 229.616583 101.524285 
L 231.134903 103.942804 
L 231.399687 104.363109 
L 232.684209 106.361324 
L 233.818206 108.105994 
L 234.265132 108.779843 
L 235.878318 111.198363 
L 236.236726 111.733318 
L 237.524424 113.616882 
L 238.655245 115.255809 
L 239.204124 116.035402 
L 240.918102 118.453921 
L 241.073765 118.673173 
L 242.667057 120.872441 
L 243.492284 122.002927 
L 244.451705 123.29096 
L 245.910804 125.236491 
L 246.272773 125.70948 
L 248.131004 128.127999 
L 248.329323 128.385566 
L 250.027157 130.546519 
L 250.747843 131.458811 
L 251.962005 132.965038 
L 253.166362 134.451949 
L 253.936339 135.383558 
L 255.584882 137.369821 
L 255.950964 137.802077 
L 258.003401 140.216791 
L 258.006702 140.220597 
L 260.104393 142.639116 
L 260.421921 143.004103 
L 262.244892 145.057636 
L 262.840441 145.726813 
L 264.429074 147.476155 
L 265.25896 148.388149 
L 266.657829 149.894675 
L 267.67748 150.99111 
L 268.932067 152.313194 
L 270.095999 153.538427 
L 271.252717 154.731714 
L 272.514519 156.032584 
L 273.620726 157.150233 
L 274.933038 158.475846 
" style="fill:none;stroke:#bfe5a0;"/>
   </g>
   <g id="LineCollection_6">
    <path clip-path="url(#pf6afb7788c)" d="M 225.682432 12.039062 
L 226.562648 13.531004 
L 227.120466 14.457582 
L 228.587847 16.876102 
L 228.981167 17.52091 
L 230.085174 19.294621 
L 231.399687 21.38122 
L 231.613057 21.713141 
L 233.172121 24.13166 
L 233.818206 25.125671 
L 234.763001 26.55018 
L 236.236726 28.749843 
L 236.386347 28.968699 
L 238.042821 31.387219 
L 238.655245 32.27482 
L 239.733099 33.805738 
L 241.073765 35.694063 
L 241.457872 36.224258 
L 243.217844 38.642777 
L 243.492284 39.018736 
L 245.013731 41.061297 
L 245.910804 42.257434 
L 246.846268 43.479816 
L 248.329323 45.405926 
L 248.716203 45.898336 
L 250.624298 48.316855 
L 250.747843 48.473246 
L 252.571333 50.735375 
L 253.166362 51.470004 
L 254.558102 53.153894 
L 255.584882 54.39102 
L 256.585415 55.572414 
L 258.003401 57.240689 
L 258.654101 57.990933 
L 260.421921 60.022978 
L 260.765004 60.409453 
L 262.840441 62.741483 
L 262.918985 62.827972 
L 265.116923 65.246492 
L 265.25896 65.402582 
L 267.359715 67.665011 
L 267.67748 68.006705 
L 269.648277 70.083531 
L 270.095999 70.554833 
L 271.983543 72.50205 
L 272.514519 73.049467 
L 274.366465 74.92057 
L 274.933038 75.492885 
" style="fill:none;stroke:#54aead;"/>
   </g>
   <g id="LineCollection_7">
    <path clip-path="url(#pf6afb7788c)" d="M 260.915487 12.039062 
L 262.840441 14.202005 
L 263.072538 14.457582 
L 265.25896 16.860324 
L 265.27361 16.876102 
L 267.5196 19.294621 
L 267.67748 19.46439 
L 269.811425 21.713141 
L 270.095999 22.012702 
L 272.15002 24.13166 
L 272.514519 24.507444 
L 274.53634 26.55018 
L 274.933038 26.950898 
" style="fill:none;stroke:#5e4fa2;"/>
   </g>
   <g id="patch_3">
    <path d="M 30.710938 7.250394 
L 279.721707 7.250394 
" style="fill:none;stroke:#000000;stroke-linecap:square;stroke-linejoin:miter;stroke-width:0.8;"/>
   </g>
   <g id="patch_4">
    <path d="M 279.721707 256.261163 
L 279.721707 7.250394 
" style="fill:none;stroke:#000000;stroke-linecap:square;stroke-linejoin:miter;stroke-width:0.8;"/>
   </g>
   <g id="patch_5">
    <path d="M 30.710938 256.261163 
L 279.721707 256.261163 
" style="fill:none;stroke:#000000;stroke-linecap:square;stroke-linejoin:miter;stroke-width:0.8;"/>
   </g>
   <g id="patch_6">
    <path d="M 30.710938 256.261163 
L 30.710938 7.250394 
" style="fill:none;stroke:#000000;stroke-linecap:square;stroke-linejoin:miter;stroke-width:0.8;"/>
   </g>
   <g id="matplotlib.axis_1">
    <g id="xtick_1">
     <g id="line2d_1">
      <defs>
       <path d="M 0 0 
L 0 -4 
" id="m7dd8c9b5d2" style="stroke:#000000;stroke-width:0.5;"/>
      </defs>
      <g>
       <use style="stroke:#000000;stroke-width:0.5;" x="35.4996061391" xlink:href="#m7dd8c9b5d2" y="256.261163092"/>
      </g>
     </g>
     <g id="line2d_2">
      <defs>
       <path d="M 0 0 
L 0 4 
" id="m2cc18bb200" style="stroke:#000000;stroke-width:0.5;"/>
      </defs>
      <g>
       <use style="stroke:#000000;stroke-width:0.5;" x="35.4996061391" xlink:href="#m2cc18bb200" y="7.25039386095"/>
      </g>
     </g>
     <g id="text_1">
      <!-- -1 -->
      <defs>
       <path d="M 12.40625 8.296875 
L 28.515625 8.296875 
L 28.515625 63.921875 
L 10.984375 60.40625 
L 10.984375 69.390625 
L 28.421875 72.90625 
L 38.28125 72.90625 
L 38.28125 8.296875 
L 54.390625 8.296875 
L 54.390625 0 
L 12.40625 0 
z
" id="BitstreamVeraSans-Roman-31"/>
       <path d="M 4.890625 31.390625 
L 31.203125 31.390625 
L 31.203125 23.390625 
L 4.890625 23.390625 
z
" id="BitstreamVeraSans-Roman-2d"/>
      </defs>
      <g transform="translate(30.5144498891 267.859600592)scale(0.1 -0.1)">
       <use xlink:href="#BitstreamVeraSans-Roman-2d"/>
       <use x="36.083984375" xlink:href="#BitstreamVeraSans-Roman-31"/>
      </g>
     </g>
    </g>
    <g id="xtick_2">
     <g id="line2d_3">
      <g>
       <use style="stroke:#000000;stroke-width:0.5;" x="95.3579641272" xlink:href="#m7dd8c9b5d2" y="256.261163092"/>
      </g>
     </g>
     <g id="line2d_4">
      <g>
       <use style="stroke:#000000;stroke-width:0.5;" x="95.3579641272" xlink:href="#m2cc18bb200" y="7.25039386095"/>
      </g>
     </g>
     <g id="text_2">
      <!-- -0.5 -->
      <defs>
       <path d="M 31.78125 66.40625 
Q 24.171875 66.40625 20.328125 58.90625 
Q 16.5 51.421875 16.5 36.375 
Q 16.5 21.390625 20.328125 13.890625 
Q 24.171875 6.390625 31.78125 6.390625 
Q 39.453125 6.390625 43.28125 13.890625 
Q 47.125 21.390625 47.125 36.375 
Q 47.125 51.421875 43.28125 58.90625 
Q 39.453125 66.40625 31.78125 66.40625 
M 31.78125 74.21875 
Q 44.046875 74.21875 50.515625 64.515625 
Q 56.984375 54.828125 56.984375 36.375 
Q 56.984375 17.96875 50.515625 8.265625 
Q 44.046875 -1.421875 31.78125 -1.421875 
Q 19.53125 -1.421875 13.0625 8.265625 
Q 6.59375 17.96875 6.59375 36.375 
Q 6.59375 54.828125 13.0625 64.515625 
Q 19.53125 74.21875 31.78125 74.21875 
" id="BitstreamVeraSans-Roman-30"/>
       <path d="M 10.6875 12.40625 
L 21 12.40625 
L 21 0 
L 10.6875 0 
z
" id="BitstreamVeraSans-Roman-2e"/>
       <path d="M 10.796875 72.90625 
L 49.515625 72.90625 
L 49.515625 64.59375 
L 19.828125 64.59375 
L 19.828125 46.734375 
Q 21.96875 47.46875 24.109375 47.828125 
Q 26.265625 48.1875 28.421875 48.1875 
Q 40.625 48.1875 47.75 41.5 
Q 54.890625 34.8125 54.890625 23.390625 
Q 54.890625 11.625 47.5625 5.09375 
Q 40.234375 -1.421875 26.90625 -1.421875 
Q 22.3125 -1.421875 17.546875 -0.640625 
Q 12.796875 0.140625 7.71875 1.703125 
L 7.71875 11.625 
Q 12.109375 9.234375 16.796875 8.0625 
Q 21.484375 6.890625 26.703125 6.890625 
Q 35.15625 6.890625 40.078125 11.328125 
Q 45.015625 15.765625 45.015625 23.390625 
Q 45.015625 31 40.078125 35.4375 
Q 35.15625 39.890625 26.703125 39.890625 
Q 22.75 39.890625 18.8125 39.015625 
Q 14.890625 38.140625 10.796875 36.28125 
z
" id="BitstreamVeraSans-Roman-35"/>
      </defs>
      <g transform="translate(85.6024953772 267.859600592)scale(0.1 -0.1)">
       <use xlink:href="#BitstreamVeraSans-Roman-2d"/>
       <use x="36.083984375" xlink:href="#BitstreamVeraSans-Roman-30"/>
       <use x="99.70703125" xlink:href="#BitstreamVeraSans-Roman-2e"/>
       <use x="131.494140625" xlink:href="#BitstreamVeraSans-Roman-35"/>
      </g>
     </g>
    </g>
    <g id="xtick_3">
     <g id="line2d_5">
      <g>
       <use style="stroke:#000000;stroke-width:0.5;" x="155.216322115" xlink:href="#m7dd8c9b5d2" y="256.261163092"/>
      </g>
     </g>
     <g id="line2d_6">
      <g>
       <use style="stroke:#000000;stroke-width:0.5;" x="155.216322115" xlink:href="#m2cc18bb200" y="7.25039386095"/>
      </g>
     </g>
     <g id="text_3">
      <!-- 0 -->
      <g transform="translate(152.035072115 267.859600592)scale(0.1 -0.1)">
       <use xlink:href="#BitstreamVeraSans-Roman-30"/>
      </g>
     </g>
    </g>
    <g id="xtick_4">
     <g id="line2d_7">
      <g>
       <use style="stroke:#000000;stroke-width:0.5;" x="215.074680104" xlink:href="#m7dd8c9b5d2" y="256.261163092"/>
      </g>
     </g>
     <g id="line2d_8">
      <g>
       <use style="stroke:#000000;stroke-width:0.5;" x="215.074680104" xlink:href="#m2cc18bb200" y="7.25039386095"/>
      </g>
     </g>
     <g id="text_4">
      <!-- 0.5 -->
      <g transform="translate(207.123117604 267.859600592)scale(0.1 -0.1)">
       <use xlink:href="#BitstreamVeraSans-Roman-30"/>
       <use x="63.623046875" xlink:href="#BitstreamVeraSans-Roman-2e"/>
       <use x="95.41015625" xlink:href="#BitstreamVeraSans-Roman-35"/>
      </g>
     </g>
    </g>
    <g id="xtick_5">
     <g id="line2d_9">
      <g>
       <use style="stroke:#000000;stroke-width:0.5;" x="274.933038092" xlink:href="#m7dd8c9b5d2" y="256.261163092"/>
      </g>
     </g>
     <g id="line2d_10">
      <g>
       <use style="stroke:#000000;stroke-width:0.5;" x="274.933038092" xlink:href="#m2cc18bb200" y="7.25039386095"/>
      </g>
     </g>
     <g id="text_5">
      <!-- 1 -->
      <g transform="translate(271.751788092 267.859600592)scale(0.1 -0.1)">
       <use xlink:href="#BitstreamVeraSans-Roman-31"/>
      </g>
     </g>
    </g>
    <g id="xtick_6">
     <g id="line2d_11">
      <defs>
       <path d="M 0 0 
L 0 -2 
" id="m1298fa2832" style="stroke:#000000;stroke-width:0.5;"/>
      </defs>
      <g>
       <use style="stroke:#000000;stroke-width:0.5;" x="47.4712777367" xlink:href="#m1298fa2832" y="256.261163092"/>
      </g>
     </g>
     <g id="line2d_12">
      <defs>
       <path d="M 0 0 
L 0 2 
" id="mcdf2c1c09b" style="stroke:#000000;stroke-width:0.5;"/>
      </defs>
      <g>
       <use style="stroke:#000000;stroke-width:0.5;" x="47.4712777367" xlink:href="#mcdf2c1c09b" y="7.25039386095"/>
      </g>
     </g>
    </g>
    <g id="xtick_7">
     <g id="line2d_13">
      <g>
       <use style="stroke:#000000;stroke-width:0.5;" x="59.4429493343" xlink:href="#m1298fa2832" y="256.261163092"/>
      </g>
     </g>
     <g id="line2d_14">
      <g>
       <use style="stroke:#000000;stroke-width:0.5;" x="59.4429493343" xlink:href="#mcdf2c1c09b" y="7.25039386095"/>
      </g>
     </g>
    </g>
    <g id="xtick_8">
     <g id="line2d_15">
      <g>
       <use style="stroke:#000000;stroke-width:0.5;" x="71.414620932" xlink:href="#m1298fa2832" y="256.261163092"/>
      </g>
     </g>
     <g id="line2d_16">
      <g>
       <use style="stroke:#000000;stroke-width:0.5;" x="71.414620932" xlink:href="#mcdf2c1c09b" y="7.25039386095"/>
      </g>
     </g>
    </g>
    <g id="xtick_9">
     <g id="line2d_17">
      <g>
       <use style="stroke:#000000;stroke-width:0.5;" x="83.3862925296" xlink:href="#m1298fa2832" y="256.261163092"/>
      </g>
     </g>
     <g id="line2d_18">
      <g>
       <use style="stroke:#000000;stroke-width:0.5;" x="83.3862925296" xlink:href="#mcdf2c1c09b" y="7.25039386095"/>
      </g>
     </g>
    </g>
    <g id="xtick_10">
     <g id="line2d_19">
      <g>
       <use style="stroke:#000000;stroke-width:0.5;" x="95.3579641272" xlink:href="#m1298fa2832" y="256.261163092"/>
      </g>
     </g>
     <g id="line2d_20">
      <g>
       <use style="stroke:#000000;stroke-width:0.5;" x="95.3579641272" xlink:href="#mcdf2c1c09b" y="7.25039386095"/>
      </g>
     </g>
    </g>
    <g id="xtick_11">
     <g id="line2d_21">
      <g>
       <use style="stroke:#000000;stroke-width:0.5;" x="107.329635725" xlink:href="#m1298fa2832" y="256.261163092"/>
      </g>
     </g>
     <g id="line2d_22">
      <g>
       <use style="stroke:#000000;stroke-width:0.5;" x="107.329635725" xlink:href="#mcdf2c1c09b" y="7.25039386095"/>
      </g>
     </g>
    </g>
    <g id="xtick_12">
     <g id="line2d_23">
      <g>
       <use style="stroke:#000000;stroke-width:0.5;" x="119.301307322" xlink:href="#m1298fa2832" y="256.261163092"/>
      </g>
     </g>
     <g id="line2d_24">
      <g>
       <use style="stroke:#000000;stroke-width:0.5;" x="119.301307322" xlink:href="#mcdf2c1c09b" y="7.25039386095"/>
      </g>
     </g>
    </g>
    <g id="xtick_13">
     <g id="line2d_25">
      <g>
       <use style="stroke:#000000;stroke-width:0.5;" x="131.27297892" xlink:href="#m1298fa2832" y="256.261163092"/>
      </g>
     </g>
     <g id="line2d_26">
      <g>
       <use style="stroke:#000000;stroke-width:0.5;" x="131.27297892" xlink:href="#mcdf2c1c09b" y="7.25039386095"/>
      </g>
     </g>
    </g>
    <g id="xtick_14">
     <g id="line2d_27">
      <g>
       <use style="stroke:#000000;stroke-width:0.5;" x="143.244650518" xlink:href="#m1298fa2832" y="256.261163092"/>
      </g>
     </g>
     <g id="line2d_28">
      <g>
       <use style="stroke:#000000;stroke-width:0.5;" x="143.244650518" xlink:href="#mcdf2c1c09b" y="7.25039386095"/>
      </g>
     </g>
    </g>
    <g id="xtick_15">
     <g id="line2d_29">
      <g>
       <use style="stroke:#000000;stroke-width:0.5;" x="155.216322115" xlink:href="#m1298fa2832" y="256.261163092"/>
      </g>
     </g>
     <g id="line2d_30">
      <g>
       <use style="stroke:#000000;stroke-width:0.5;" x="155.216322115" xlink:href="#mcdf2c1c09b" y="7.25039386095"/>
      </g>
     </g>
    </g>
    <g id="xtick_16">
     <g id="line2d_31">
      <g>
       <use style="stroke:#000000;stroke-width:0.5;" x="167.187993713" xlink:href="#m1298fa2832" y="256.261163092"/>
      </g>
     </g>
     <g id="line2d_32">
      <g>
       <use style="stroke:#000000;stroke-width:0.5;" x="167.187993713" xlink:href="#mcdf2c1c09b" y="7.25039386095"/>
      </g>
     </g>
    </g>
    <g id="xtick_17">
     <g id="line2d_33">
      <g>
       <use style="stroke:#000000;stroke-width:0.5;" x="179.159665311" xlink:href="#m1298fa2832" y="256.261163092"/>
      </g>
     </g>
     <g id="line2d_34">
      <g>
       <use style="stroke:#000000;stroke-width:0.5;" x="179.159665311" xlink:href="#mcdf2c1c09b" y="7.25039386095"/>
      </g>
     </g>
    </g>
    <g id="xtick_18">
     <g id="line2d_35">
      <g>
       <use style="stroke:#000000;stroke-width:0.5;" x="191.131336908" xlink:href="#m1298fa2832" y="256.261163092"/>
      </g>
     </g>
     <g id="line2d_36">
      <g>
       <use style="stroke:#000000;stroke-width:0.5;" x="191.131336908" xlink:href="#mcdf2c1c09b" y="7.25039386095"/>
      </g>
     </g>
    </g>
    <g id="xtick_19">
     <g id="line2d_37">
      <g>
       <use style="stroke:#000000;stroke-width:0.5;" x="203.103008506" xlink:href="#m1298fa2832" y="256.261163092"/>
      </g>
     </g>
     <g id="line2d_38">
      <g>
       <use style="stroke:#000000;stroke-width:0.5;" x="203.103008506" xlink:href="#mcdf2c1c09b" y="7.25039386095"/>
      </g>
     </g>
    </g>
    <g id="xtick_20">
     <g id="line2d_39">
      <g>
       <use style="stroke:#000000;stroke-width:0.5;" x="215.074680104" xlink:href="#m1298fa2832" y="256.261163092"/>
      </g>
     </g>
     <g id="line2d_40">
      <g>
       <use style="stroke:#000000;stroke-width:0.5;" x="215.074680104" xlink:href="#mcdf2c1c09b" y="7.25039386095"/>
      </g>
     </g>
    </g>
    <g id="xtick_21">
     <g id="line2d_41">
      <g>
       <use style="stroke:#000000;stroke-width:0.5;" x="227.046351701" xlink:href="#m1298fa2832" y="256.261163092"/>
      </g>
     </g>
     <g id="line2d_42">
      <g>
       <use style="stroke:#000000;stroke-width:0.5;" x="227.046351701" xlink:href="#mcdf2c1c09b" y="7.25039386095"/>
      </g>
     </g>
    </g>
    <g id="xtick_22">
     <g id="line2d_43">
      <g>
       <use style="stroke:#000000;stroke-width:0.5;" x="239.018023299" xlink:href="#m1298fa2832" y="256.261163092"/>
      </g>
     </g>
     <g id="line2d_44">
      <g>
       <use style="stroke:#000000;stroke-width:0.5;" x="239.018023299" xlink:href="#mcdf2c1c09b" y="7.25039386095"/>
      </g>
     </g>
    </g>
    <g id="xtick_23">
     <g id="line2d_45">
      <g>
       <use style="stroke:#000000;stroke-width:0.5;" x="250.989694896" xlink:href="#m1298fa2832" y="256.261163092"/>
      </g>
     </g>
     <g id="line2d_46">
      <g>
       <use style="stroke:#000000;stroke-width:0.5;" x="250.989694896" xlink:href="#mcdf2c1c09b" y="7.25039386095"/>
      </g>
     </g>
    </g>
    <g id="xtick_24">
     <g id="line2d_47">
      <g>
       <use style="stroke:#000000;stroke-width:0.5;" x="262.961366494" xlink:href="#m1298fa2832" y="256.261163092"/>
      </g>
     </g>
     <g id="line2d_48">
      <g>
       <use style="stroke:#000000;stroke-width:0.5;" x="262.961366494" xlink:href="#mcdf2c1c09b" y="7.25039386095"/>
      </g>
     </g>
    </g>
    <g id="xtick_25">
     <g id="line2d_49">
      <g>
       <use style="stroke:#000000;stroke-width:0.5;" x="274.933038092" xlink:href="#m1298fa2832" y="256.261163092"/>
      </g>
     </g>
     <g id="line2d_50">
      <g>
       <use style="stroke:#000000;stroke-width:0.5;" x="274.933038092" xlink:href="#mcdf2c1c09b" y="7.25039386095"/>
      </g>
     </g>
    </g>
   </g>
   <g id="matplotlib.axis_2">
    <g id="ytick_1">
     <g id="line2d_51">
      <defs>
       <path d="M 0 0 
L 4 0 
" id="mdd6149c796" style="stroke:#000000;stroke-width:0.5;"/>
      </defs>
      <g>
       <use style="stroke:#000000;stroke-width:0.5;" x="30.7109375" xlink:href="#mdd6149c796" y="251.472494453"/>
      </g>
     </g>
     <g id="line2d_52">
      <defs>
       <path d="M 0 0 
L -4 0 
" id="m96e8fcc9cf" style="stroke:#000000;stroke-width:0.5;"/>
      </defs>
      <g>
       <use style="stroke:#000000;stroke-width:0.5;" x="279.721706731" xlink:href="#m96e8fcc9cf" y="251.472494453"/>
      </g>
     </g>
     <g id="text_6">
      <!-- -1 -->
      <g transform="translate(16.740625 254.231869453)scale(0.1 -0.1)">
       <use xlink:href="#BitstreamVeraSans-Roman-2d"/>
       <use x="36.083984375" xlink:href="#BitstreamVeraSans-Roman-31"/>
      </g>
     </g>
    </g>
    <g id="ytick_2">
     <g id="line2d_53">
      <g>
       <use style="stroke:#000000;stroke-width:0.5;" x="30.7109375" xlink:href="#mdd6149c796" y="191.614136464"/>
      </g>
     </g>
     <g id="line2d_54">
      <g>
       <use style="stroke:#000000;stroke-width:0.5;" x="279.721706731" xlink:href="#m96e8fcc9cf" y="191.614136464"/>
      </g>
     </g>
     <g id="text_7">
      <!-- -0.5 -->
      <g transform="translate(7.2 194.373511464)scale(0.1 -0.1)">
       <use xlink:href="#BitstreamVeraSans-Roman-2d"/>
       <use x="36.083984375" xlink:href="#BitstreamVeraSans-Roman-30"/>
       <use x="99.70703125" xlink:href="#BitstreamVeraSans-Roman-2e"/>
       <use x="131.494140625" xlink:href="#BitstreamVeraSans-Roman-35"/>
      </g>
     </g>
    </g>
    <g id="ytick_3">
     <g id="line2d_55">
      <g>
       <use style="stroke:#000000;stroke-width:0.5;" x="30.7109375" xlink:href="#mdd6149c796" y="131.755778476"/>
      </g>
     </g>
     <g id="line2d_56">
      <g>
       <use style="stroke:#000000;stroke-width:0.5;" x="279.721706731" xlink:href="#m96e8fcc9cf" y="131.755778476"/>
      </g>
     </g>
     <g id="text_8">
      <!-- 0 -->
      <g transform="translate(20.3484375 134.515153476)scale(0.1 -0.1)">
       <use xlink:href="#BitstreamVeraSans-Roman-30"/>
      </g>
     </g>
    </g>
    <g id="ytick_4">
     <g id="line2d_57">
      <g>
       <use style="stroke:#000000;stroke-width:0.5;" x="30.7109375" xlink:href="#mdd6149c796" y="71.8974204882"/>
      </g>
     </g>
     <g id="line2d_58">
      <g>
       <use style="stroke:#000000;stroke-width:0.5;" x="279.721706731" xlink:href="#m96e8fcc9cf" y="71.8974204882"/>
      </g>
     </g>
     <g id="text_9">
      <!-- 0.5 -->
      <g transform="translate(10.8078125 74.6567954882)scale(0.1 -0.1)">
       <use xlink:href="#BitstreamVeraSans-Roman-30"/>
       <use x="63.623046875" xlink:href="#BitstreamVeraSans-Roman-2e"/>
       <use x="95.41015625" xlink:href="#BitstreamVeraSans-Roman-35"/>
      </g>
     </g>
    </g>
    <g id="ytick_5">
     <g id="line2d_59">
      <g>
       <use style="stroke:#000000;stroke-width:0.5;" x="30.7109375" xlink:href="#mdd6149c796" y="12.0390625"/>
      </g>
     </g>
     <g id="line2d_60">
      <g>
       <use style="stroke:#000000;stroke-width:0.5;" x="279.721706731" xlink:href="#m96e8fcc9cf" y="12.0390625"/>
      </g>
     </g>
     <g id="text_10">
      <!-- 1 -->
      <g transform="translate(20.3484375 14.7984375)scale(0.1 -0.1)">
       <use xlink:href="#BitstreamVeraSans-Roman-31"/>
      </g>
     </g>
    </g>
    <g id="ytick_6">
     <g id="line2d_61">
      <defs>
       <path d="M 0 0 
L 2 0 
" id="m5d0eb42682" style="stroke:#000000;stroke-width:0.5;"/>
      </defs>
      <g>
       <use style="stroke:#000000;stroke-width:0.5;" x="30.7109375" xlink:href="#m5d0eb42682" y="239.500822855"/>
      </g>
     </g>
     <g id="line2d_62">
      <defs>
       <path d="M 0 0 
L -2 0 
" id="mf4cdc81cb0" style="stroke:#000000;stroke-width:0.5;"/>
      </defs>
      <g>
       <use style="stroke:#000000;stroke-width:0.5;" x="279.721706731" xlink:href="#mf4cdc81cb0" y="239.500822855"/>
      </g>
     </g>
    </g>
    <g id="ytick_7">
     <g id="line2d_63">
      <g>
       <use style="stroke:#000000;stroke-width:0.5;" x="30.7109375" xlink:href="#m5d0eb42682" y="227.529151257"/>
      </g>
     </g>
     <g id="line2d_64">
      <g>
       <use style="stroke:#000000;stroke-width:0.5;" x="279.721706731" xlink:href="#mf4cdc81cb0" y="227.529151257"/>
      </g>
     </g>
    </g>
    <g id="ytick_8">
     <g id="line2d_65">
      <g>
       <use style="stroke:#000000;stroke-width:0.5;" x="30.7109375" xlink:href="#m5d0eb42682" y="215.55747966"/>
      </g>
     </g>
     <g id="line2d_66">
      <g>
       <use style="stroke:#000000;stroke-width:0.5;" x="279.721706731" xlink:href="#mf4cdc81cb0" y="215.55747966"/>
      </g>
     </g>
    </g>
    <g id="ytick_9">
     <g id="line2d_67">
      <g>
       <use style="stroke:#000000;stroke-width:0.5;" x="30.7109375" xlink:href="#m5d0eb42682" y="203.585808062"/>
      </g>
     </g>
     <g id="line2d_68">
      <g>
       <use style="stroke:#000000;stroke-width:0.5;" x="279.721706731" xlink:href="#mf4cdc81cb0" y="203.585808062"/>
      </g>
     </g>
    </g>
    <g id="ytick_10">
     <g id="line2d_69">
      <g>
       <use style="stroke:#000000;stroke-width:0.5;" x="30.7109375" xlink:href="#m5d0eb42682" y="191.614136464"/>
      </g>
     </g>
     <g id="line2d_70">
      <g>
       <use style="stroke:#000000;stroke-width:0.5;" x="279.721706731" xlink:href="#mf4cdc81cb0" y="191.614136464"/>
      </g>
     </g>
    </g>
    <g id="ytick_11">
     <g id="line2d_71">
      <g>
       <use style="stroke:#000000;stroke-width:0.5;" x="30.7109375" xlink:href="#m5d0eb42682" y="179.642464867"/>
      </g>
     </g>
     <g id="line2d_72">
      <g>
       <use style="stroke:#000000;stroke-width:0.5;" x="279.721706731" xlink:href="#mf4cdc81cb0" y="179.642464867"/>
      </g>
     </g>
    </g>
    <g id="ytick_12">
     <g id="line2d_73">
      <g>
       <use style="stroke:#000000;stroke-width:0.5;" x="30.7109375" xlink:href="#m5d0eb42682" y="167.670793269"/>
      </g>
     </g>
     <g id="line2d_74">
      <g>
       <use style="stroke:#000000;stroke-width:0.5;" x="279.721706731" xlink:href="#mf4cdc81cb0" y="167.670793269"/>
      </g>
     </g>
    </g>
    <g id="ytick_13">
     <g id="line2d_75">
      <g>
       <use style="stroke:#000000;stroke-width:0.5;" x="30.7109375" xlink:href="#m5d0eb42682" y="155.699121672"/>
      </g>
     </g>
     <g id="line2d_76">
      <g>
       <use style="stroke:#000000;stroke-width:0.5;" x="279.721706731" xlink:href="#mf4cdc81cb0" y="155.699121672"/>
      </g>
     </g>
    </g>
    <g id="ytick_14">
     <g id="line2d_77">
      <g>
       <use style="stroke:#000000;stroke-width:0.5;" x="30.7109375" xlink:href="#m5d0eb42682" y="143.727450074"/>
      </g>
     </g>
     <g id="line2d_78">
      <g>
       <use style="stroke:#000000;stroke-width:0.5;" x="279.721706731" xlink:href="#mf4cdc81cb0" y="143.727450074"/>
      </g>
     </g>
    </g>
    <g id="ytick_15">
     <g id="line2d_79">
      <g>
       <use style="stroke:#000000;stroke-width:0.5;" x="30.7109375" xlink:href="#m5d0eb42682" y="131.755778476"/>
      </g>
     </g>
     <g id="line2d_80">
      <g>
       <use style="stroke:#000000;stroke-width:0.5;" x="279.721706731" xlink:href="#mf4cdc81cb0" y="131.755778476"/>
      </g>
     </g>
    </g>
    <g id="ytick_16">
     <g id="line2d_81">
      <g>
       <use style="stroke:#000000;stroke-width:0.5;" x="30.7109375" xlink:href="#m5d0eb42682" y="119.784106879"/>
      </g>
     </g>
     <g id="line2d_82">
      <g>
       <use style="stroke:#000000;stroke-width:0.5;" x="279.721706731" xlink:href="#mf4cdc81cb0" y="119.784106879"/>
      </g>
     </g>
    </g>
    <g id="ytick_17">
     <g id="line2d_83">
      <g>
       <use style="stroke:#000000;stroke-width:0.5;" x="30.7109375" xlink:href="#m5d0eb42682" y="107.812435281"/>
      </g>
     </g>
     <g id="line2d_84">
      <g>
       <use style="stroke:#000000;stroke-width:0.5;" x="279.721706731" xlink:href="#mf4cdc81cb0" y="107.812435281"/>
      </g>
     </g>
    </g>
    <g id="ytick_18">
     <g id="line2d_85">
      <g>
       <use style="stroke:#000000;stroke-width:0.5;" x="30.7109375" xlink:href="#m5d0eb42682" y="95.8407636834"/>
      </g>
     </g>
     <g id="line2d_86">
      <g>
       <use style="stroke:#000000;stroke-width:0.5;" x="279.721706731" xlink:href="#mf4cdc81cb0" y="95.8407636834"/>
      </g>
     </g>
    </g>
    <g id="ytick_19">
     <g id="line2d_87">
      <g>
       <use style="stroke:#000000;stroke-width:0.5;" x="30.7109375" xlink:href="#m5d0eb42682" y="83.8690920858"/>
      </g>
     </g>
     <g id="line2d_88">
      <g>
       <use style="stroke:#000000;stroke-width:0.5;" x="279.721706731" xlink:href="#mf4cdc81cb0" y="83.8690920858"/>
      </g>
     </g>
    </g>
    <g id="ytick_20">
     <g id="line2d_89">
      <g>
       <use style="stroke:#000000;stroke-width:0.5;" x="30.7109375" xlink:href="#m5d0eb42682" y="71.8974204882"/>
      </g>
     </g>
     <g id="line2d_90">
      <g>
       <use style="stroke:#000000;stroke-width:0.5;" x="279.721706731" xlink:href="#mf4cdc81cb0" y="71.8974204882"/>
      </g>
     </g>
    </g>
    <g id="ytick_21">
     <g id="line2d_91">
      <g>
       <use style="stroke:#000000;stroke-width:0.5;" x="30.7109375" xlink:href="#m5d0eb42682" y="59.9257488905"/>
      </g>
     </g>
     <g id="line2d_92">
      <g>
       <use style="stroke:#000000;stroke-width:0.5;" x="279.721706731" xlink:href="#mf4cdc81cb0" y="59.9257488905"/>
      </g>
     </g>
    </g>
    <g id="ytick_22">
     <g id="line2d_93">
      <g>
       <use style="stroke:#000000;stroke-width:0.5;" x="30.7109375" xlink:href="#m5d0eb42682" y="47.9540772929"/>
      </g>
     </g>
     <g id="line2d_94">
      <g>
       <use style="stroke:#000000;stroke-width:0.5;" x="279.721706731" xlink:href="#mf4cdc81cb0" y="47.9540772929"/>
      </g>
     </g>
    </g>
    <g id="ytick_23">
     <g id="line2d_95">
      <g>
       <use style="stroke:#000000;stroke-width:0.5;" x="30.7109375" xlink:href="#m5d0eb42682" y="35.9824056953"/>
      </g>
     </g>
     <g id="line2d_96">
      <g>
       <use style="stroke:#000000;stroke-width:0.5;" x="279.721706731" xlink:href="#mf4cdc81cb0" y="35.9824056953"/>
      </g>
     </g>
    </g>
    <g id="ytick_24">
     <g id="line2d_97">
      <g>
       <use style="stroke:#000000;stroke-width:0.5;" x="30.7109375" xlink:href="#m5d0eb42682" y="24.0107340976"/>
      </g>
     </g>
     <g id="line2d_98">
      <g>
       <use style="stroke:#000000;stroke-width:0.5;" x="279.721706731" xlink:href="#mf4cdc81cb0" y="24.0107340976"/>
      </g>
     </g>
    </g>
    <g id="ytick_25">
     <g id="line2d_99">
      <g>
       <use style="stroke:#000000;stroke-width:0.5;" x="30.7109375" xlink:href="#m5d0eb42682" y="12.0390625"/>
      </g>
     </g>
     <g id="line2d_100">
      <g>
       <use style="stroke:#000000;stroke-width:0.5;" x="279.721706731" xlink:href="#mf4cdc81cb0" y="12.0390625"/>
      </g>
     </g>
    </g>
   </g>
  </g>
 </g>
 <defs>
  <clipPath id="pf6afb7788c">
   <rect height="249.010769231" width="249.010769231" x="30.7109375" y="7.25039386095"/>
  </clipPath>
 </defs>
</svg>
